HIERARCHY
ROOT Hips
{
	OFFSET 0.000000 0.000000 0.000000
	CHANNELS 6 Xposition Yposition Zposition Zrotation Yrotation Xrotation 
	JOINT LowerBack
	{
		OFFSET 0.000000 0.000000 0.000000
		CHANNELS 3 Zrotation Yrotation Xrotation
		JOINT Spine
		{
			OFFSET 0.028270 2.035590 -0.193380
			CHANNELS 3 Zrotation Yrotation Xrotation
			JOINT Spine1
			{
				OFFSET 0.056720 2.048850 -0.042750
				CHANNELS 3 Zrotation Yrotation Xrotation
				JOINT Neck
				{
					OFFSET 0.000000 0.000000 0.000000
					CHANNELS 3 Zrotation Yrotation Xrotation
					JOINT Neck1
					{
						OFFSET -0.054170 1.746240 0.172020
						CHANNELS 3 Zrotation Yrotation Xrotation
						JOINT Head
						{
							OFFSET 0.104070 1.761360 -0.123970
							CHANNELS 3 Zrotation Yrotation Xrotation
							End Site
							{
								OFFSET 0.000000 0.000000 0.000000
							}
						}
					}
				}
				JOINT LeftShoulder
				{
					OFFSET 0.000000 0.000000 0.000000
					CHANNELS 3 Zrotation Yrotation Xrotation
					JOINT LeftArm
					{
						OFFSET 3.362410 1.200890 -0.311210
						CHANNELS 3 Zrotation Yrotation Xrotation
						JOINT LeftForeArm
						{
							OFFSET 4.983000 -0.000000 -0.000000
							CHANNELS 3 Zrotation Yrotation Xrotation
							JOINT LeftHand
							{
								OFFSET 3.483560 -0.000000 -0.000000
								CHANNELS 3 Zrotation Yrotation Xrotation
								JOINT LeftFingerBase
								{
									OFFSET 0.000000 0.000000 0.000000
									CHANNELS 3 Zrotation Yrotation Xrotation
									JOINT LeftHandIndex1
									{
										OFFSET 0.715260 -0.000000 -0.000000
										CHANNELS 3 Zrotation Yrotation Xrotation
										End Site
										{
											OFFSET 0.000000 0.000000 0.000000
										}
									}
								}
								JOINT LThumb
								{
									OFFSET 0.000000 0.000000 0.000000
									CHANNELS 3 Zrotation Yrotation Xrotation
									End Site
									{
										OFFSET 0.000000 0.000000 0.000000
									}
								}
							}
						}
					}
				}
				JOINT RightShoulder
				{
					OFFSET 0.000000 0.000000 0.000000
					CHANNELS 3 Zrotation Yrotation Xrotation
					JOINT RightArm
					{
						OFFSET -3.136600 1.374050 -0.404650
						CHANNELS 3 Zrotation Yrotation Xrotation
						JOINT RightForeArm
						{
							OFFSET -5.241900 -0.000000 -0.000000
							CHANNELS 3 Zrotation Yrotation Xrotation
							JOINT RightHand
							{
								OFFSET -3.444170 -0.000000 -0.000000
								CHANNELS 3 Zrotation Yrotation Xrotation
								JOINT RightFingerBase
								{
									OFFSET 0.000000 0.000000 0.000000
									CHANNELS 3 Zrotation Yrotation Xrotation
									JOINT RightHandIndex1
									{
										OFFSET -0.622530 -0.000000 -0.000000
										CHANNELS 3 Zrotation Yrotation Xrotation
										End Site
										{
											OFFSET 0.000000 0.000000 0.000000
										}
									}
								}
								JOINT RThumb
								{
									OFFSET 0.000000 0.000000 0.000000
									CHANNELS 3 Zrotation Yrotation Xrotation
									End Site
									{
										OFFSET 0.000000 0.000000 0.000000
									}
								}
							}
						}
					}
				}
			}
		}
	}
}
}
MOTION
Frames: 7
Frame Time: 0.008333
-8.222089 16.533343 -3.270246 31.028301 84.627917 48.234656 -3.438248 -0.159281 0.938403 -1.310503 0.051410 -2.616029 -5.450541 0.001125 1.228505 9.717668 -5.695515 -5.718223 -2.634652 -0.220604 0.432561 0.000000 0.000000 0.000000 -7.003403 12.098586 2.198896 -61.550191 14.091535 17.894598 -4.219779 -31.684221 -0.031214 -14.608736 4.351889 -0.567559 -0.084085 -0.097484 -0.000000 0.000000 0.000000 0.000000 0.000000 0.000000 0.000000 11.318831 -1.342453 0.249527 50.364639 19.536950 11.539022 1.065590 69.127309 0.020971 4.508757 8.815265 0.362713 -0.026223 -0.306308 -0.000000 0.000000 0.000000 0.000000 0.000000 0.000000 0.000000 
-8.030733 16.515688 -3.251379 33.067100 84.121240 50.095554 -3.910905 -0.216237 1.119666 -1.417189 0.023274 -2.599440 -5.526886 -0.027426 1.175202 9.846344 -5.659435 -5.685415 -2.694193 -0.224925 0.435659 0.000000 0.000000 0.000000 -6.863343 11.776568 2.233129 -61.704371 13.226336 17.258611 -4.280046 -30.811297 -0.030159 -14.391258 4.462037 -0.572030 -0.088492 -0.092885 -0.000000 0.000000 0.000000 0.000000 0.000000 0.000000 0.000000 11.676179 -1.358758 0.217064 51.531645 18.571779 11.341932 1.126800 68.009281 0.019480 4.011216 8.595625 0.314058 -0.016125 -0.297869 0.000000 0.000000 0.000000 0.000000 0.000000 0.000000 0.000000 
-7.846013 16.505083 -3.232085 34.054543 83.546138 50.911236 -4.325444 -0.259258 1.323923 -1.510906 0.005582 -2.578347 -5.597624 -0.045428 1.120390 9.924603 -5.590332 -5.635560 -2.756243 -0.229536 0.442652 0.000000 0.000000 0.000000 -6.756551 11.436404 2.264751 -61.854983 12.274059 16.561667 -4.338909 -29.934338 -0.028952 -14.153780 4.568252 -0.574798 -0.092889 -0.087621 -0.000000 0.000000 0.000000 0.000000 0.000000 0.000000 0.000000 11.996398 -1.351727 0.186022 52.770236 17.656910 11.169339 1.192591 66.696263 0.017793 3.473615 8.311783 0.262498 -0.005906 -0.288147 0.000000 0.000000 0.000000 0.000000 0.000000 0.000000 0.000000 
-7.667672 16.501797 -3.213067 34.275190 82.926446 50.965050 -4.669484 -0.293894 1.550053 -1.588617 -0.007802 -2.550501 -5.661050 -0.058823 1.073573 9.955250 -5.504895 -5.576997 -2.820502 -0.234297 0.451303 0.000000 0.000000 0.000000 -6.684407 11.107343 2.291552 -61.997878 11.213006 15.826798 -4.394932 -29.068669 -0.027571 -13.897805 4.662278 -0.574660 -0.097176 -0.081652 -0.000000 0.000000 0.000000 0.000000 0.000000 0.000000 0.000000 12.288497 -1.343027 0.156947 54.044274 16.826586 11.037144 1.262496 65.188973 0.015954 2.907742 7.975975 0.210331 0.004232 -0.277213 0.000000 0.000000 0.000000 0.000000 0.000000 0.000000 0.000000 
-7.495241 16.505852 -3.195348 33.847416 82.283735 50.376215 -4.916276 -0.320712 1.792041 -1.644883 -0.018916 -2.518334 -5.716508 -0.069800 1.030388 9.934777 -5.389758 -5.504235 -2.886130 -0.239232 0.463480 0.000000 0.000000 0.000000 -6.656521 10.778822 2.313772 -62.128418 10.083692 15.044926 -4.445676 -28.262364 -0.026044 -13.628495 4.739800 -0.571520 -0.101215 -0.075096 -0.000000 0.000000 0.000000 0.000000 0.000000 0.000000 0.000000 12.540262 -1.319026 0.131788 55.333745 16.053441 10.929188 1.335346 63.510610 0.014075 2.344923 7.599258 0.161054 0.013826 -0.265206 0.000000 0.000000 0.000000 0.000000 0.000000 0.000000 0.000000 
-7.328027 16.517043 -3.179159 32.960196 81.631307 49.337348 -5.062151 -0.343119 2.043444 -1.679127 -0.031255 -2.480960 -5.763919 -0.081715 0.999475 9.873066 -5.262333 -5.427069 -2.951968 -0.244130 0.476619 0.000000 0.000000 0.000000 -6.664442 10.481590 2.329883 -62.240809 8.868682 14.249940 -4.490086 -27.536893 -0.024368 -13.350160 4.791879 -0.564775 -0.104918 -0.067990 -0.000000 0.000000 0.000000 0.000000 0.000000 0.000000 0.000000 12.761714 -1.298166 0.110805 56.608478 15.353866 10.856347 1.411450 61.677052 0.012261 1.807261 7.203716 0.117068 0.022691 -0.252339 0.000000 0.000000 0.000000 0.000000 0.000000 0.000000 0.000000 
-7.165046 16.535010 -3.164927 31.679914 80.984949 47.924311 -5.091998 -0.362104 2.292334 -1.688762 -0.046576 -2.439639 -5.804287 -0.096320 0.985752 9.777946 -5.124867 -5.351965 -3.016678 -0.248823 0.489212 0.000000 0.000000 0.000000 -6.705114 10.246833 2.339793 -62.326741 7.556596 13.481001 -4.527419 -26.918741 -0.022551 -13.071281 4.812380 -0.554024 -0.108259 -0.060377 -0.000000 0.000000 0.000000 0.000000 0.000000 0.000000 0.000000 12.953823 -1.279967 0.092948 57.846880 14.712594 10.806375 1.491213 59.720821 0.010666 1.336217 6.815679 0.081271 0.030405 -0.238879 0.000000 0.000000 0.000000 0.000000 0.000000 0.000000 0.000000 
